<?xml version="1.0" encoding="utf-8"?>
<!-- Generator: Adobe Illustrator 24.2.3, SVG Export Plug-In . SVG Version: 6.00 Build 0)  -->
<svg version="1.1" id="Layer_1" xmlns="http://www.w3.org/2000/svg" xmlns:xlink="http://www.w3.org/1999/xlink" x="0px" y="0px"
	 viewBox="0 0 956.91 42.9" style="enable-background:new 0 0 956.91 42.9;" xml:space="preserve">
<style type="text/css">
	.st0{fill:none;stroke:#000000;stroke-width:2;stroke-miterlimit:10;}
</style>
<g>
	<path class="st0" d="M171.88,19.45c3.04,0,3.04,4,6.07,4c3.03,0,3.03-4,6.07-4c3.03,0,3.03,4,6.07,4c3.03,0,3.03-4,6.07-4
		c3.03,0,3.03,4,6.07,4c3.03,0,3.03-4,6.07-4c3.03,0,3.03,4,6.07,4c3.03,0,3.03-4,6.07-4c3.03,0,3.03,4,6.07,4c3.03,0,3.03-4,6.07-4
		c3.03,0,3.03,4,6.07,4c3.03,0,3.03-4,6.07-4c3.04,0,3.04,4,6.07,4c3.03,0,3.03-4,6.07-4c3.03,0,3.03,4,6.07,4c3.03,0,3.03-4,6.07-4
		c3.03,0,3.03,4,6.07,4c3.03,0,3.03-4,6.07-4c3.03,0,3.03,4,6.07,4c3.03,0,3.03-4,6.07-4c3.03,0,3.03,4,6.07,4c3.04,0,3.04-4,6.07-4
		c3.04,0,3.04,4,6.07,4c3.03,0,3.03-4,6.07-4c3.03,0,3.03,4,6.07,4c3.03,0,3.03-4,6.07-4c3.03,0,3.03,4,6.07,4c3.03,0,3.03-4,6.07-4
		c3.03,0,3.03,4,6.07,4c3.03,0,3.03-4,6.07-4c3.04,0,3.04,4,6.07,4c3.04,0,3.04-4,6.07-4c3.03,0,3.03,4,6.07,4c3.03,0,3.03-4,6.07-4
		c3.03,0,3.03,4,6.07,4c3.03,0,3.03-4,6.07-4c3.03,0,3.03,4,6.07,4c3.04,0,3.04-4,6.07-4c3.04,0,3.04,4,6.07,4c3.03,0,3.03-4,6.07-4
		c3.03,0,3.03,4,6.07,4c3.03,0,3.03-4,6.07-4c3.04,0,3.04,4,6.07,4c3.04,0,3.04-4,6.07-4c3.04,0,3.04,4,6.07,4c3.03,0,3.03-4,6.07-4
		c3.03,0,3.03,4,6.07,4c3.03,0,3.03-4,6.07-4c3.04,0,3.04,4,6.07,4c3.04,0,3.04-4,6.07-4c3.04,0,3.04,4,6.07,4c3.04,0,3.04-4,6.07-4
		c3.04,0,3.04,4,6.07,4c3.04,0,3.04-4,6.07-4c3.04,0,3.04,4,6.07,4c3.04,0,3.04-4,6.07-4c3.04,0,3.04,4,6.07,4c3.04,0,3.04-4,6.07-4
		c3.04,0,3.04,4,6.07,4c3.04,0,3.04-4,6.07-4c3.04,0,3.04,4,6.07,4c3.04,0,3.04-4,6.07-4c3.04,0,3.04,4,6.07,4c3.04,0,3.04-4,6.07-4
		c3.04,0,3.04,4,6.07,4c3.04,0,3.04-4,6.07-4c3.04,0,3.04,4,6.07,4c3.04,0,3.04-4,6.07-4c3.03,0,3.03,4,6.07,4c3.03,0,3.03-4,6.07-4
		c3.03,0,3.03,4,6.07,4c3.04,0,3.04-4,6.07-4c3.03,0,3.03,4,6.07,4c3.03,0,3.03-4,6.07-4c3.04,0,3.04,4,6.07,4c3.04,0,3.04-4,6.07-4
		c3.03,0,3.03,4,6.07,4c3.04,0,3.04-4,6.07-4c3.04,0,3.04,4,6.07,4c3.04,0,3.04-4,6.07-4c3.04,0,3.04,4,6.07,4c3.04,0,3.04-4,6.07-4
		c3.04,0,3.04,4,6.07,4c3.04,0,3.04-4,6.07-4c3.04,0,3.04,4,6.07,4c3.04,0,3.04-4,6.07-4c3.04,0,3.04,4,6.07,4c3.04,0,3.04-4,6.08-4
		c3.04,0,3.04,4,6.07,4s3.04-4,6.07-4c3.04,0,3.04,4,6.08,4c3.04,0,3.04-4,6.07-4c3.04,0,3.04,4,6.07,4c3.04,0,3.04-4,6.08-4
		c3.04,0,3.04,4,6.08,4s3.04-4,6.08-4c3.04,0,3.04,4,6.08,4c3.04,0,3.04-4,6.07-4c3.04,0,3.04,4,6.08,4c3.04,0,3.04-4,6.08-4
		s3.04,4,6.08,4"/>
</g>
</svg>
